<svg width="131" height="35" viewBox="0 0 131 35" fill="none" xmlns="http://www.w3.org/2000/svg">
<path d="M0.24 1.5H8.97V25.575H21.705V33H0.24V1.5ZM31.0879 17.25C31.0879 18.93 31.4179 20.43 32.0779 21.75C32.7379 23.04 33.6679 24.06 34.8679 24.81C36.0679 25.53 37.4779 25.89 39.0979 25.89C40.7479 25.89 42.1579 25.53 43.3279 24.81C44.5279 24.06 45.4579 23.04 46.1179 21.75C46.7779 20.43 47.1079 18.93 47.1079 17.25C47.1079 15.54 46.7929 14.04 46.1629 12.75C45.5329 11.46 44.6179 10.455 43.4179 9.735C42.2479 8.985 40.8079 8.61 39.0979 8.61C37.4779 8.61 36.0679 8.985 34.8679 9.735C33.6679 10.455 32.7379 11.46 32.0779 12.75C31.4179 14.04 31.0879 15.54 31.0879 17.25ZM21.8629 17.25C21.8629 14.76 22.2979 12.51 23.1679 10.5C24.0679 8.46 25.2979 6.72 26.8579 5.28C28.4179 3.81 30.2329 2.685 32.3029 1.905C34.4029 1.095 36.6679 0.689998 39.0979 0.689998C41.5879 0.689998 43.8679 1.095 45.9379 1.905C48.0379 2.685 49.8679 3.81 51.4279 5.28C52.9879 6.72 54.1879 8.46 55.0279 10.5C55.8979 12.51 56.3329 14.76 56.3329 17.25C56.3329 19.71 55.9129 21.975 55.0729 24.045C54.2329 26.115 53.0479 27.915 51.5179 29.445C49.9879 30.945 48.1579 32.115 46.0279 32.955C43.9279 33.765 41.6179 34.17 39.0979 34.17C36.5779 34.17 34.2679 33.765 32.1679 32.955C30.0679 32.115 28.2379 30.945 26.6779 29.445C25.1479 27.915 23.9629 26.115 23.1229 24.045C22.2829 21.975 21.8629 19.71 21.8629 17.25ZM76.9014 21.885V15.405H93.2364C93.4464 17.985 93.2214 20.415 92.5614 22.695C91.9014 24.975 90.8664 26.97 89.4564 28.68C88.0464 30.39 86.2764 31.74 84.1464 32.73C82.0164 33.69 79.5714 34.17 76.8114 34.17C74.2614 34.17 71.9064 33.765 69.7464 32.955C67.6164 32.145 65.7564 31.005 64.1664 29.535C62.6064 28.035 61.3914 26.25 60.5214 24.18C59.6514 22.08 59.2164 19.77 59.2164 17.25C59.2164 14.73 59.6664 12.45 60.5664 10.41C61.4664 8.37 62.7264 6.63 64.3464 5.19C65.9664 3.72 67.8714 2.61 70.0614 1.86C72.2514 1.08 74.6214 0.689998 77.1714 0.689998C79.4814 0.689998 81.5364 1.035 83.3364 1.725C85.1664 2.385 86.7714 3.3 88.1514 4.47C89.5314 5.61 90.7314 6.915 91.7514 8.385L83.7864 12.21C83.1564 11.07 82.3164 10.11 81.2664 9.33C80.2164 8.55 78.8514 8.16 77.1714 8.16C75.5814 8.16 74.1114 8.505 72.7614 9.195C71.4114 9.885 70.3314 10.905 69.5214 12.255C68.7414 13.605 68.3514 15.27 68.3514 17.25C68.3514 19.2 68.7264 20.895 69.4764 22.335C70.2264 23.745 71.2614 24.825 72.5814 25.575C73.9014 26.325 75.4314 26.7 77.1714 26.7C78.2214 26.7 79.1514 26.595 79.9614 26.385C80.7714 26.145 81.4764 25.815 82.0764 25.395C82.6764 24.945 83.1864 24.42 83.6064 23.82C84.0564 23.22 84.4164 22.575 84.6864 21.885H76.9014ZM105.619 17.25C105.619 18.93 105.949 20.43 106.609 21.75C107.269 23.04 108.199 24.06 109.399 24.81C110.599 25.53 112.009 25.89 113.629 25.89C115.279 25.89 116.689 25.53 117.859 24.81C119.059 24.06 119.989 23.04 120.649 21.75C121.309 20.43 121.639 18.93 121.639 17.25C121.639 15.54 121.324 14.04 120.694 12.75C120.064 11.46 119.149 10.455 117.949 9.735C116.779 8.985 115.339 8.61 113.629 8.61C112.009 8.61 110.599 8.985 109.399 9.735C108.199 10.455 107.269 11.46 106.609 12.75C105.949 14.04 105.619 15.54 105.619 17.25ZM96.3941 17.25C96.3941 14.76 96.8291 12.51 97.6991 10.5C98.5991 8.46 99.8291 6.72 101.389 5.28C102.949 3.81 104.764 2.685 106.834 1.905C108.934 1.095 111.199 0.689998 113.629 0.689998C116.119 0.689998 118.399 1.095 120.469 1.905C122.569 2.685 124.399 3.81 125.959 5.28C127.519 6.72 128.719 8.46 129.559 10.5C130.429 12.51 130.864 14.76 130.864 17.25C130.864 19.71 130.444 21.975 129.604 24.045C128.764 26.115 127.579 27.915 126.049 29.445C124.519 30.945 122.689 32.115 120.559 32.955C118.459 33.765 116.149 34.17 113.629 34.17C111.109 34.17 108.799 33.765 106.699 32.955C104.599 32.115 102.769 30.945 101.209 29.445C99.6791 27.915 98.4941 26.115 97.6541 24.045C96.8141 21.975 96.3941 19.71 96.3941 17.25Z" fill="white"/>
</svg>
