<svg width="33" height="28" viewBox="0 0 33 28" fill="none" xmlns="http://www.w3.org/2000/svg">
<path d="M2 7.14286L10.7804 13.3714C12.8475 14.8376 13.8811 15.5708 14.9981 15.8557C15.9854 16.1074 17.0146 16.1074 18.0019 15.8557C19.1189 15.5708 20.1526 14.8376 22.2196 13.3714L31 7.14286M7.15556 26H25.8444C27.649 26 28.5514 26 29.2407 25.6263C29.8469 25.2977 30.3399 24.7731 30.6488 24.128C31 23.3946 31 22.4345 31 20.5143V7.48571C31 5.56554 31 4.60544 30.6488 3.87203C30.3399 3.2269 29.8469 2.70239 29.2407 2.3737C28.5514 2 27.649 2 25.8444 2H7.15556C5.35095 2 4.44863 2 3.75937 2.3737C3.15306 2.70239 2.66012 3.2269 2.35121 3.87203C2 4.60544 2 5.56553 2 7.48571V20.5143C2 22.4345 2 23.3946 2.35121 24.128C2.66012 24.7731 3.15306 25.2977 3.75937 25.6263C4.44863 26 5.35093 26 7.15556 26Z" stroke="white" stroke-width="3.5" stroke-linecap="round" stroke-linejoin="round"/>
</svg>
