<svg width="28" height="42" viewBox="0 0 28 42" fill="none" xmlns="http://www.w3.org/2000/svg">
<path d="M14 33.6667H14.02M8.4 40H19.6C21.8402 40 22.9604 40 23.816 39.5398C24.5686 39.1351 25.1806 38.4891 25.564 37.6947C26 36.7915 26 35.6091 26 33.2444V8.75556C26 6.3909 26 5.20855 25.564 4.30538C25.1806 3.5109 24.5686 2.86499 23.816 2.4602C22.9604 2 21.8402 2 19.6 2H8.4C6.1598 2 5.03968 2 4.18404 2.4602C3.43138 2.86499 2.81946 3.5109 2.43598 4.30538C2 5.20855 2 6.39088 2 8.75556V33.2444C2 35.6091 2 36.7915 2.43598 37.6947C2.81946 38.4891 3.43138 39.1351 4.18404 39.5398C5.03968 40 6.15978 40 8.4 40Z" stroke="white" stroke-width="3" stroke-linecap="round" stroke-linejoin="round"/>
</svg>
