<svg width="340" height="370" viewBox="0 0 340 370" fill="none" xmlns="http://www.w3.org/2000/svg">
<path d="M0.000732422 40C0.000732422 17.9086 17.9093 0 40.0007 0H300C322.091 0 340 17.9086 340 40V232.658C340 254.75 322.091 272.658 300 272.658H283.003C260.912 272.658 243.003 290.567 243.003 312.658V340.95C243.003 356.994 229.997 370 213.954 370H196.679H40.0008C17.9094 370 0.000732422 352.091 0.000732422 330V40Z" fill="#2F2F2F"/>
<ellipse cx="295.075" cy="325.152" rx="44.9248" ry="44.8485" fill="#2F2F2F"/>
<path d="M283.987 314.882L304.92 311.502L308.106 332.431M303.688 313.19L285.693 337.837" stroke="white" stroke-width="4" stroke-linecap="round" stroke-linejoin="round"/>
</svg>
