<svg width="42" height="42" viewBox="0 0 42 42" fill="none" xmlns="http://www.w3.org/2000/svg">
<path d="M20.8333 2C10.432 2 2 10.432 2 20.8333C2 31.2346 10.432 39.6666 20.8333 39.6666C31.2346 39.6666 39.6666 31.2346 39.6666 20.8333C39.6666 10.432 31.2346 2 20.8333 2Z" stroke="white" stroke-width="3" stroke-linecap="round" stroke-linejoin="round"/>
<path d="M13.3 38.0995V24.6L20.8334 11.4167L28.3667 24.6V38.0995" stroke="white" stroke-width="3" stroke-linecap="round" stroke-linejoin="round"/>
<path d="M13.3 24.6C13.3 24.6 15.4221 26.4833 17.0667 26.4833C18.7112 26.4833 20.8334 24.6 20.8334 24.6C20.8334 24.6 22.9555 26.4833 24.6 26.4833C26.2446 26.4833 28.3667 24.6 28.3667 24.6" stroke="white" stroke-width="3" stroke-linecap="round" stroke-linejoin="round"/>
</svg>
