<svg width="42" height="28" viewBox="0 0 42 28" fill="none" xmlns="http://www.w3.org/2000/svg">
<path d="M26.1586 2.23113C26.4253 1.30186 25.885 0.33328 24.9515 0.0677786C24.0182 -0.197723 23.0454 0.340367 22.7787 1.26964L15.7481 25.7689C15.4815 26.6981 16.0219 27.6667 16.9553 27.9322C17.8886 28.1978 18.8615 27.6597 19.1281 26.7303L26.1586 2.23113Z" fill="white"/>
<path d="M10.1026 5.92656C10.6821 6.70094 10.5275 7.80098 9.7573 8.38361L4.18625 12.5979C3.25834 13.3 3.25833 14.7002 4.18625 15.4022L9.7573 19.6165C10.5275 20.1992 10.6821 21.2992 10.1026 22.0735C9.52313 22.848 8.42904 23.0033 7.65885 22.4208L2.08782 18.2065C-0.69593 16.1005 -0.695941 11.8996 2.0878 9.79375L7.65885 5.57938C8.42904 4.99677 9.52313 5.1522 10.1026 5.92656Z" fill="white"/>
<path d="M31.8073 22.0735C31.2227 21.2992 31.3787 20.1992 32.1557 19.6165L37.7766 15.4022C38.7128 14.7002 38.7128 13.3 37.7766 12.5979L32.1557 8.38361C31.3787 7.80098 31.2227 6.70094 31.8073 5.92656C32.392 5.1522 33.4959 4.99677 34.2729 5.57938L39.8937 9.79375C42.7023 11.8996 42.7023 16.1005 39.8937 18.2065L34.2729 22.4208C33.4959 23.0033 32.392 22.848 31.8073 22.0735Z" fill="white"/>
</svg>
