<svg width="36" height="36" viewBox="0 0 36 36" fill="none" xmlns="http://www.w3.org/2000/svg">
<path d="M0.5274 30.0726C0.189952 29.7351 0.000384521 29.2773 0.000384521 28.8C0.000384521 28.3227 0.189952 27.8649 0.5274 27.5274L5.9274 22.1274C6.22165 21.8331 6.6088 21.6498 7.02297 21.6088C7.43714 21.5677 7.85273 21.6715 8.199 21.9024L12.3714 24.6834L16.7274 20.3274C17.0669 19.9995 17.5216 19.8181 17.9935 19.8222C18.4655 19.8263 18.9169 20.0156 19.2507 20.3493C19.5844 20.6831 19.7737 21.1345 19.7778 21.6065C19.7819 22.0784 19.6005 22.5331 19.2726 22.8726L13.8726 28.2726C13.5784 28.5669 13.1912 28.7502 12.777 28.7912C12.3629 28.8323 11.9473 28.7285 11.601 28.4976L7.4286 25.7166L3.0726 30.0726C2.73505 30.41 2.2773 30.5996 1.8 30.5996C1.3227 30.5996 0.86495 30.41 0.5274 30.0726ZM36 1.8V34.2C36 34.6774 35.8104 35.1352 35.4728 35.4728C35.1352 35.8104 34.6774 36 34.2 36H1.8C1.32261 36 0.864773 35.8104 0.527208 35.4728C0.189642 35.1352 0 34.6774 0 34.2C0 33.7226 0.189642 33.2648 0.527208 32.9272C0.864773 32.5896 1.32261 32.4 1.8 32.4H32.4V10.8H3.6V18C3.6 18.4774 3.41036 18.9352 3.07279 19.2728C2.73523 19.6104 2.27739 19.8 1.8 19.8C1.32261 19.8 0.864773 19.6104 0.527208 19.2728C0.189642 18.9352 0 18.4774 0 18V1.8C0 1.32261 0.189642 0.864773 0.527208 0.527208C0.864773 0.189642 1.32261 0 1.8 0H34.2C34.6774 0 35.1352 0.189642 35.4728 0.527208C35.8104 0.864773 36 1.32261 36 1.8ZM3.6 7.2H32.4V3.6H3.6V7.2ZM22.8726 19.2726L24.6726 17.4726C25.0005 17.1331 25.1819 16.6784 25.1778 16.2065C25.1737 15.7345 24.9844 15.2831 24.6507 14.9493C24.3169 14.6156 23.8655 14.4263 23.3935 14.4222C22.9216 14.4181 22.4669 14.5995 22.1274 14.9274L20.3274 16.7274C20.1555 16.8934 20.0184 17.0921 19.924 17.3117C19.8297 17.5313 19.78 17.7675 19.7779 18.0065C19.7759 18.2455 19.8214 18.4825 19.9119 18.7037C20.0024 18.9249 20.1361 19.1259 20.3051 19.2949C20.4741 19.4639 20.6751 19.5976 20.8963 19.6881C21.1175 19.7786 21.3545 19.8241 21.5935 19.8221C21.8325 19.82 22.0687 19.7703 22.2883 19.676C22.5079 19.5816 22.7066 19.4445 22.8726 19.2726Z" fill="white"/>
</svg>
