<svg width="40" height="31" viewBox="0 0 40 31" fill="none" xmlns="http://www.w3.org/2000/svg">
<path d="M35.4478 0.508564C35.0201 0.226434 34.5311 0.0557518 34.0236 0.0115196C33.5161 -0.0327125 33.0057 0.0508603 32.5373 0.254892L17.1891 6.41913C16.8257 6.56994 16.4371 6.64747 16.0448 6.64744H6.21891C5.39423 6.64744 4.60333 6.98152 4.02019 7.57618C3.43705 8.17084 3.10945 8.97737 3.10945 9.81835V10.072H0V17.6822H3.10945V18.012C3.12894 18.8397 3.46512 19.6268 4.04616 20.2051C4.6272 20.7834 5.407 21.107 6.21891 21.1068L9.95025 29.1736C10.2029 29.7168 10.6007 30.1763 11.0979 30.4994C11.5951 30.8225 12.1716 30.996 12.7612 31H14.3284C15.1487 30.9933 15.9332 30.6563 16.511 30.0623C17.0888 29.4684 17.413 28.6657 17.4129 27.8291V21.4112L32.5373 27.5754C32.9093 27.7264 33.3061 27.8039 33.7065 27.8037C34.3276 27.7935 34.9325 27.5996 35.4478 27.2456C35.8569 26.9639 36.1944 26.5869 36.4323 26.1458C36.6702 25.7047 36.8017 25.2121 36.8159 24.7089V3.12139C36.8136 2.60521 36.6878 2.0974 36.4494 1.64206C36.211 1.18672 35.8671 0.797624 35.4478 0.508564ZM14.3035 9.81835V18.012H6.21891V9.81835H14.3035ZM14.3035 27.8291H12.7363L9.67662 21.1068H14.3035V27.8291ZM18.3333 18.3925C18.038 18.2386 17.73 18.1112 17.4129 18.012V9.64077C17.727 9.5747 18.0349 9.48135 18.3333 9.36173L33.7065 3.12139V24.6328L18.3333 18.3925ZM36.8905 10.7062V17.048C37.7152 17.048 38.5061 16.7139 39.0893 16.1193C39.6724 15.5246 40 14.7181 40 13.8771C40 13.0361 39.6724 12.2296 39.0893 11.6349C38.5061 11.0403 37.7152 10.7062 36.8905 10.7062Z" fill="white"/>
</svg>
