<svg width="39" height="39" viewBox="0 0 39 39" fill="none" xmlns="http://www.w3.org/2000/svg">
<path d="M2 2H5.88889M5.88889 2H33.1111M5.88889 2V19.1111C5.88889 21.2891 5.88889 22.3782 6.31276 23.21C6.68559 23.9417 7.28051 24.5367 8.01226 24.9094C8.84413 25.3333 9.93314 25.3333 12.1111 25.3333H19.5M37 2H33.1111M33.1111 2V19.1111C33.1111 21.2891 33.1111 22.3782 32.6872 23.21C32.3145 23.9417 31.7195 24.5367 30.9878 24.9094C30.1559 25.3333 29.0669 25.3333 26.8889 25.3333H19.5M19.5 31.1667L9.77778 37M19.5 31.1667L29.2222 37M19.5 31.1667V37M19.5 31.1667V25.3333M11.7222 15.6111L17.5556 9.77778L21.4444 15.6111L27.2778 9.77778" stroke="white" stroke-width="3" stroke-linecap="round" stroke-linejoin="round"/>
</svg>
