<svg width="23" height="38" viewBox="0 0 23 38" fill="none" xmlns="http://www.w3.org/2000/svg">
<path d="M17.25 26.0943C17.25 24.434 18.1729 22.9155 19.6334 22.173L23 20.4615L12.9375 0H10.0625L0 20.4615L3.36663 22.173C4.82713 22.9155 5.75 24.434 5.75 26.0943V26.3077H2.875V38H20.125V26.3077H17.25V26.0943ZM4.65175 19.5583L3.85681 19.1549L10.0625 6.536V17.5385H12.9375V6.536L19.1432 19.1535L18.3482 19.5568C15.8973 20.8035 14.375 23.3086 14.375 26.0943V26.3077H8.625V26.0943C8.625 23.3086 7.10269 20.8035 4.65175 19.5583ZM17.25 35.0769H5.75V29.2308H17.25V35.0769Z" fill="white"/>
</svg>
